<svg width="512" height="512" xmlns="http://www.w3.org/2000/svg">

 <g>
  <title>background</title>
  <rect fill="none" id="canvas_background" height="402" width="582" y="-1" x="-1"/>
 </g>
 <g>
  <title>Layer 1</title>
  <rect fill="#ffffff" id="svg_3" height="21.333" width="196.108" transform="matrix(0.7071,-0.7071,0.7071,0.7071,-153.2795,173.9521) " y="261.334" x="35.285"/>
  <rect fill="#ffffff" id="svg_6" height="196.108" width="21.333" transform="matrix(0.7071,-0.7071,0.7071,0.7071,-81.426,347.4251) " y="173.949" x="368.001"/>
  <path fill="#ffffff" id="svg_9" d="m484.149,55.552l-228.149,176.299l-228.149,-176.299l-13.035,16.896l234.667,181.333c1.865,1.444 4.159,2.225 6.517,2.219c2.359,0.006 4.652,-0.775 6.517,-2.219l234.667,-181.333l-13.035,-16.896z"/>
  <path fill="#ffffff" id="svg_12" d="m480,42.667l-448,0c-17.673,0 -32,14.327 -32,32l0,298.667c0,17.673 14.327,32 32,32l149.333,0l0,53.333c-0.001,4.314 2.596,8.204 6.581,9.856c1.294,0.54 2.683,0.815 4.085,0.811c2.829,-0.001 5.541,-1.125 7.541,-3.125l60.875,-60.875l219.585,0c17.673,0 32,-14.327 32,-32l0,-298.667c0,-17.674 -14.327,-32 -32,-32zm10.667,330.666c0,5.891 -4.776,10.667 -10.667,10.667l-224,0c-2.829,0.001 -5.541,1.125 -7.541,3.125l-45.792,45.792l0,-38.251c0,-5.891 -4.776,-10.667 -10.667,-10.667l-160,0c-5.891,0 -10.667,-4.776 -10.667,-10.667l0,-298.665c0,-5.891 4.776,-10.667 10.667,-10.667l448,0c5.891,0 10.667,4.776 10.667,10.667l0,298.666z"/>
 </g>
</svg>